<svg width="1698" height="404" viewBox="0 0 1698 404" fill="none" xmlns="http://www.w3.org/2000/svg">
<path d="M334.399 332.838C325.488 327.255 314.02 328.74 306.641 336.222C290.2 352.861 268.693 360.7 245.192 360.7C192.806 360.7 153.475 323.419 153.475 266.473C153.475 209.528 192.806 172.707 245.192 172.707C268.599 172.707 290.106 180.491 306.491 197.035C313.917 204.564 325.545 205.993 334.446 200.259L334.7 200.109C346.328 192.636 348.528 176.345 338.949 166.362C316.417 142.702 283.545 130.416 245.644 130.416C221.73 130.416 199.809 135.229 180.708 143.99C189.619 129.345 200.119 117.106 211.587 108.091C213.993 106.192 215.018 105.271 217.838 103.024C220.019 101.219 221.899 99.6966 223.469 98.4652C234.016 90.2213 244.262 81.6201 254.498 73.066C260.947 67.7362 261.567 61.2877 256.858 54.9426C252.506 49.0017 245.897 47.2063 238.368 50.0264C230.989 52.79 223.516 55.657 216.654 59.2479C185.267 75.7921 161.86 99.5462 141.274 125.669C126.065 144.977 115.414 166.484 103.025 187.578C102.311 180.462 102.517 173.6 103.439 166.738C110.451 116.504 133.707 72.0038 165.498 30.6245C172.106 22.0234 177.277 13.1591 166.316 4.51099C157.922 -2.14429 147.826 0.666341 137.072 12.2943C120.481 30.2673 106.193 49.6785 93.9069 70.1614C72.5028 105.854 59.6528 144.056 52.2268 186.61C45.4117 174.681 45.5151 164.492 44.6503 154.603C41.8302 122.858 44.6503 91.4151 54.6332 60.7425C57.2464 52.649 55.5544 46.1441 46.8029 43.0233C37.384 39.6392 30.1083 43.1737 25.9064 51.3236C23.8572 55.3656 21.761 59.4171 20.069 63.6095C-4.28675 125.641 -4.13635 188.481 13.5265 251.565C27.9181 303.181 59.5588 342.558 110.31 373.39C148.916 396.9 218.355 406.469 258.202 402.634C290.774 400.124 318.88 387.885 338.902 366.838C348.481 356.799 346.178 340.415 334.399 332.989V332.838Z" fill="#5D3BCB"/>
<path d="M658.082 262.489C658.082 346.085 599.773 402.335 519.788 402.335C479.537 402.335 444.446 386.853 422.262 355.889V399.233H374.791V16.3474H424.33V167.022C447.031 137.609 481.088 123.161 519.797 123.161C599.783 123.161 658.092 178.894 658.092 262.489H658.082ZM608.027 262.489C608.027 204.181 568.292 166.514 515.661 166.514C463.03 166.514 423.813 204.181 423.813 262.489C423.813 320.798 463.547 358.982 515.661 358.982C567.775 358.982 608.027 320.798 608.027 262.489Z" fill="#5D3BCB"/>
<path d="M680.324 262.49C680.324 180.963 740.701 123.162 822.745 123.162C904.79 123.162 964.65 180.954 964.65 262.49C964.65 344.027 904.79 402.336 822.745 402.336C740.701 402.336 680.324 344.027 680.324 262.49ZM914.603 262.49C914.603 204.181 875.386 166.515 822.755 166.515C770.123 166.515 730.389 204.181 730.389 262.49C730.389 320.799 770.123 358.982 822.755 358.982C875.386 358.982 914.603 320.799 914.603 262.49Z" fill="#5D3BCB"/>
<path d="M1220.7 234.111V399.233H1173.73V363.108C1157.22 387.878 1126.78 402.326 1083.94 402.326C1022.02 402.326 982.807 369.303 982.807 321.823C982.807 277.962 1011.19 241.838 1092.72 241.838H1171.16V232.033C1171.16 190.24 1146.9 165.979 1097.88 165.979C1065.38 165.979 1032.35 177.334 1011.19 195.392L990.552 158.242C1018.93 135.541 1059.7 123.152 1103.56 123.152C1178.39 123.152 1220.7 159.276 1220.7 234.092V234.111ZM1171.16 315.638V277.455H1094.78C1045.76 277.455 1031.83 296.546 1031.83 319.764C1031.83 347.109 1054.53 364.142 1092.21 364.142C1129.88 364.142 1158.77 347.109 1171.16 315.638Z" fill="#5D3BCB"/>
<path d="M1409.34 123.162V171.149C1405.22 170.632 1401.61 170.632 1397.99 170.632C1344.84 170.632 1311.82 203.138 1311.82 262.998V399.224H1262.28V125.747H1309.75V171.676C1327.29 139.678 1361.35 123.171 1409.34 123.171V123.162Z" fill="#5D3BCB"/>
<path d="M1698 16.3474V399.233H1650.53V355.889C1628.34 386.853 1593.25 402.335 1553 402.335C1473.01 402.335 1414.71 346.085 1414.71 262.489C1414.71 178.894 1473.01 123.161 1553 123.161C1591.7 123.161 1625.76 137.609 1648.47 167.022V16.3474H1698.01H1698ZM1648.97 262.489C1648.97 204.181 1609.24 166.514 1557.13 166.514C1505.01 166.514 1464.76 204.181 1464.76 262.489C1464.76 320.798 1504.5 358.982 1557.13 358.982C1609.76 358.982 1648.97 320.798 1648.97 262.489Z" fill="#5D3BCB"/>
</svg>
